inDegrees=no
num_controls=7
num_derivatives=13
num_iterations=92
num_multipliers=7
num_parameters=0
num_slacks=7
num_states=26
objective=5.646265
objective_accelerations=0.232933
objective_balance=0.052364
objective_effort=0.353854
objective_height=4.919279
objective_ligament=0.087835
solver_duration=788.823942
status=Solve_Succeeded
success=true
DataType=double
version=3
OpenSimVersion=4.4-2022-07-23-0e9fedc
endheader
time	/jointset/ground_pelvis/pelvis_tilt/value	/jointset/ground_pelvis/pelvis_tx/value	/jointset/ground_pelvis/pelvis_ty/value	/jointset/hip_r/hip_flexion_r/value	/jointset/hip_r/hip_adduction_r/value	/jointset/hip_r/hip_rotation_r/value	/jointset/back/lumbar_extension/value	/jointset/patellofemoral_r/patellar_flexion_r/value	/jointset/knee_r/knee_flexion_r/value	/jointset/knee_r/knee_adduction_r/value	/jointset/knee_r/knee_rotation_r/value	/jointset/ankle_r/ankle_angle_r/value	/jointset/subtalar_r/subtalar_angle_r/value	/jointset/ground_pelvis/pelvis_tilt/speed	/jointset/ground_pelvis/pelvis_tx/speed	/jointset/ground_pelvis/pelvis_ty/speed	/jointset/hip_r/hip_flexion_r/speed	/jointset/hip_r/hip_adduction_r/speed	/jointset/hip_r/hip_rotation_r/speed	/jointset/back/lumbar_extension/speed	/jointset/patellofemoral_r/patellar_flexion_r/speed	/jointset/knee_r/knee_flexion_r/speed	/jointset/knee_r/knee_adduction_r/speed	/jointset/knee_r/knee_rotation_r/speed	/jointset/ankle_r/ankle_angle_r/speed	/jointset/subtalar_r/subtalar_angle_r/speed	/forceset/tau_hip_flexion_r	/forceset/tau_hip_adduction_r	/forceset/tau_hip_rotation_r	/forceset/tau_knee_flexion_r	/forceset/tau_ankle_angle_r	/forceset/tau_subtalar_angle_r	/forceset/tau_lumbar_extension	lambda_cid13_p0	lambda_cid14_p0	lambda_cid14_p1	lambda_cid14_p2	lambda_cid14_p3	lambda_cid14_p4	lambda_cid14_p5	/jointset/ground_pelvis/pelvis_tilt/accel	/jointset/ground_pelvis/pelvis_tx/accel	/jointset/ground_pelvis/pelvis_ty/accel	/jointset/hip_r/hip_flexion_r/accel	/jointset/hip_r/hip_adduction_r/accel	/jointset/hip_r/hip_rotation_r/accel	/jointset/back/lumbar_extension/accel	/jointset/patellofemoral_r/patellar_flexion_r/accel	/jointset/knee_r/knee_flexion_r/accel	/jointset/knee_r/knee_adduction_r/accel	/jointset/knee_r/knee_rotation_r/accel	/jointset/ankle_r/ankle_angle_r/accel	/jointset/subtalar_r/subtalar_angle_r/accel	gamma_cid13_p0	gamma_cid14_p0	gamma_cid14_p1	gamma_cid14_p2	gamma_cid14_p3	gamma_cid14_p4	gamma_cid14_p5
1.5	-0.02486155081995246	0.1042386218090653	0.9039429757460792	0.4370607078108804	-0.2210668415219091	-0.1763209332597846	-0.2522013543283763	0.5017164115356627	0.501716411535183	0.05138245107056186	0.1745319794245062	0.2565395236574405	0.06738729480109702	0.003389185000939956	0.03264598827118336	0.1869842031931374	-0.8327112385965548	0.01485180968809212	-0.2140680345542806	0.6928512567845986	-1.362969062522254	-1.362969062522166	0.2586900132682332	-4.998580774763912e-06	-0.614464430705413	-0.1640447930383917	-0.006008527019637735	-0.0129113268852616	0.0007852661400821315	-0.2890277526030027	0.01813680395406601	-0.01631975647042783	0.08080424743702266	-40.38386725717394	-36.78322799017631	-8.913657441570376	-3.389807871176624	8.727085800748583	-673.9713937847105	54.66831135282825	-0.1011621418003874	0.03301323422917631	-0.296916377420912	-0.3031572756219165	-0.05887785546643412	-0.4506513915576576	0.7926509278718815	-0.7227922555522263	-0.7227922555522391	0.3452701488405767	-0.007492523880380761	-0.4303644566188579	-0.06456592158348004	8.401634300712831e-08	6.948696012695197e-08	-7.013082418705023e-07	7.760190619863883e-07	3.846849168618832e-08	6.50259092861683e-08	-9.286992650932001e-07
1.51	-0.02483290374904118	0.1045666554724363	0.9057975304725557	0.4287197804717893	-0.2209219108059017	-0.1784837924859397	-0.2452340009453139	0.4880526531390782	0.4880526531388277	0.0539878035651308	0.17453200933133	0.2503740348368505	0.06574297938337827	0.002342051676575341	0.03295178388742039	0.1838883317506338	-0.8353508860755694	0.01413097066526132	-0.2184855992631375	0.700514438427123	-1.369576989110074	-1.369576989109941	0.2623643816956696	5.82201149547881e-06	-0.6185467672685776	-0.1647949934081841	-0.002195179427296056	-0.01473491498834201	0.0002835985576388885	-0.2867261012068293	0.02318398956063582	-0.01733777990151602	0.07699099549639792	-40.77850444479959	-35.12867342267563	-8.998754033780074	-3.4531484802759	8.135193312400038	-672.194632918952	54.7494562770534	-0.1062084135455001	0.02802807484823682	-0.3216660842930816	-0.2258590142339283	-0.07912564749934402	-0.4344340427736301	0.7374045724681519	-0.5989681079652515	-0.5989681079583593	0.3760483494980271	0.004729821467566038	-0.3841659075009013	-0.07678784287900797	9.258758785377964e-08	7.429522529950771e-08	-7.99332403854947e-07	8.113744018993981e-07	4.418869835828102e-08	8.149598773396203e-08	-1.003371379408622e-06
1.52	-0.0248146719085217	0.1048974801618756	0.9076199777732814	0.4203561585518802	-0.2207842762244757	-0.1806902523656332	-0.2381931651878185	0.4743289804270971	0.4743289804270703	0.05662940537592666	0.1745320195382674	0.2441703231203627	0.06409185381232169	0.001306138920553409	0.0332041934848651	0.1805627180428835	-0.8372501547622826	0.01339258277012286	-0.2227881652609602	0.7075477316706328	-1.374951925600626	-1.374951925600447	0.2659398765152196	-8.938568757935085e-06	-0.6221090098851707	-0.165406823706054	0.001618168165056867	-0.01655850309145544	-0.0002180690246153984	-0.2844244498106673	0.02823117516718883	-0.01835580333265691	0.07317774355579622	-41.1411404540925	-33.48142788614791	-9.081485814955235	-3.521029588463699	7.54018982879679	-670.5428964642963	54.89050909454748	-0.09891802813180836	0.02233603047063534	-0.3428648304702621	-0.155081517161648	-0.06238762992797993	-0.4276516493508002	0.6666732480689704	-0.4761942360983636	-0.4761942360983636	0.3254954272633083	-0.01260875838509366	-0.326345667304606	-0.03689190719902255	1.011318704488039e-07	7.920480537927112e-08	-8.95479301162845e-07	8.455580978200436e-07	4.958023498462821e-08	9.925425401985026e-08	-1.075231191365062e-06
1.53	-0.02480663510794987	0.1052305502017112	0.9094080782163798	0.411977089606351	-0.2206541666787714	-0.1829393148787869	-0.2310853591008135	0.4605576761387191	0.4605576761388696	0.05930632953487085	0.1745319403029307	0.2379335535188747	0.06243521982460121	0.0003030077103967974	0.03339914347462376	0.177022434696417	-0.8384346252427546	0.01262531823422925	-0.2270024251407887	0.7138986138669242	-1.379095361245702	-1.379095361245682	0.2694285258239936	-1.06022736655669e-05	-0.6251558794450369	-0.1658983497085897	0.00555901865958888	-0.01853529890541548	-0.0007232931291058165	-0.2823052204041829	0.03353751290059483	-0.01949465683993021	0.06927453893440579	-41.47112640776633	-31.76111191711577	-9.210011548795411	-3.57462850356494	6.92146349898192	-668.9405577185569	54.98886360838361	-0.1007357845028183	0.0164852962229335	-0.3648247446173166	-0.08077017631636625	-0.08444259348347262	-0.414865150503413	0.6020649260475259	-0.3514054453945162	-0.3514054454182327	0.3580077131599549	0.005647242872914668	-0.2804809868378596	-0.05209678242762363	1.096475056514744e-07	8.422203254794266e-08	-9.896316047519121e-07	8.78496921998802e-07	5.462255968737082e-08	1.183812198837139e-07	-1.144102932065084e-06
